<svg id="visual" viewBox="0 0 900 600" width="900" height="600" xmlns="http://www.w3.org/2000/svg" xmlns:xlink="http://www.w3.org/1999/xlink" version="1.1"><path d="M0 400L21.5 396.8C43 393.7 86 387.3 128.8 407C171.7 426.7 214.3 472.3 257.2 487.5C300 502.7 343 487.3 385.8 485.2C428.7 483 471.3 494 514.2 488.3C557 482.7 600 460.3 642.8 439.3C685.7 418.3 728.3 398.7 771.2 389.5C814 380.3 857 381.7 878.5 382.3L900 383L900 601L878.5 601C857 601 814 601 771.2 601C728.3 601 685.7 601 642.8 601C600 601 557 601 514.2 601C471.3 601 428.7 601 385.8 601C343 601 300 601 257.2 601C214.3 601 171.7 601 128.8 601C86 601 43 601 21.5 601L0 601Z" fill="#3087C4" stroke-linecap="round" stroke-linejoin="miter"></path></svg>